<?xml version="1.0" standalone="no"?>
<!DOCTYPE svg PUBLIC "-//W3C//DTD SVG 20010904//EN"
 "http://www.w3.org/TR/2001/REC-SVG-20010904/DTD/svg10.dtd">
<svg version="1.0" xmlns="http://www.w3.org/2000/svg"
 width="600.000000pt" height="600.000000pt" viewBox="0 0 600.000000 600.000000"
 preserveAspectRatio="xMidYMid meet">
<metadata>
Created by potrace 1.11, written by Peter Selinger 2001-2013
</metadata>
<g transform="translate(0.000000,600.000000) scale(0.100000,-0.100000)"
fill="#000000" stroke="none">
<path d="M1483 5262 c-48 -2 -73 -7 -74 -15 -1 -16 -1 -4212 0 -4252 l1 -30
842 1 c751 1 958 5 1063 18 17 3 50 7 75 10 67 8 123 17 142 22 20 6 43 10 93
18 68 11 300 94 393 141 175 88 357 240 472 393 14 19 30 39 36 45 25 28 113
168 151 242 124 240 224 568 249 815 3 30 7 60 9 67 24 75 24 670 1 801 -2 9
-7 44 -11 77 -4 32 -9 68 -12 80 -2 11 -6 31 -9 45 -95 468 -257 793 -529
1063 -244 243 -539 381 -910 427 -153 19 -181 21 -480 26 -332 6 -1394 10
-1502 6z m1667 -517 c161 -12 164 -12 195 -18 17 -4 50 -9 75 -12 163 -22 340
-103 465 -215 232 -208 382 -482 441 -805 31 -176 39 -282 39 -545 0 -271 -7
-372 -36 -535 -89 -497 -297 -839 -606 -994 -100 -50 -235 -94 -328 -108 -16
-2 -52 -8 -80 -13 -104 -19 -246 -23 -785 -24 l-555 -1 -1 1630 c0 897 1 1635
3 1640 4 12 1014 12 1173 0z"/>
</g>
</svg>
